{
	"asset":{
		"generator":"Khronos glTF Blender I/O v4.2.57",
		"version":"2.0"
	},
	"scene":0,
	"scenes":[
		{
			"name":"Scene",
			"nodes":[
				0
			]
		}
	],
	"nodes":[
		{
			"mesh":0,
			"name":"Robot",
			"scale":[
				1.4303985834121704,
				3.799067735671997,
				4.462986946105957
			],
			"translation":[
				0.08429840207099915,
				2.511765956878662,
				0.030630312860012054
			]
		}
	],
	"meshes":[
		{
			"name":"Cube.008",
			"primitives":[
				{
					"attributes":{
						"POSITION":0,
						"NORMAL":1,
						"TEXCOORD_0":2
					},
					"indices":3
				}
			]
		}
	],
	"accessors":[
		{
			"bufferView":0,
			"componentType":5126,
			"count":3674,
			"max":[
				0.17477543652057648,
				0.185528963804245,
				0.3767794370651245
			],
			"min":[
				-0.17477543652057648,
				-0.6110900044441223,
				-0.3732042908668518
			],
			"type":"VEC3"
		},
		{
			"bufferView":1,
			"componentType":5126,
			"count":3674,
			"type":"VEC3"
		},
		{
			"bufferView":2,
			"componentType":5126,
			"count":3674,
			"type":"VEC2"
		},
		{
			"bufferView":3,
			"componentType":5123,
			"count":8364,
			"type":"SCALAR"
		}
	],
	"bufferViews":[
		{
			"buffer":0,
			"byteLength":44088,
			"byteOffset":0,
			"target":34962
		},
		{
			"buffer":0,
			"byteLength":44088,
			"byteOffset":44088,
			"target":34962
		},
		{
			"buffer":0,
			"byteLength":29392,
			"byteOffset":88176,
			"target":34962
		},
		{
			"buffer":0,
			"byteLength":16728,
			"byteOffset":117568,
			"target":34963
		}
	],
	"buffers":[
		{
			"byteLength":134296,
			"uri":"Robot-d74185de63516841b02f283a9e3fcc8b.bin"
		}
	]
}
